<svg class="icon" viewBox="0 0 1024 1024" xmlns="http://www.w3.org/2000/svg" width="200" height="200"><defs><style/></defs><path d="M512 128c-111.667 0-201 89.333-201 200.999 0 20.303 16.242 36.545 36.545 36.545 20.304 0 36.546-16.242 36.546-36.545 0-1.057.014-2.111.04-3.162A129.949 129.949 0 0 1 384 320c0-70.692 57.308-128 128-128s128 57.308 128 128c0 39.071-17.506 74.054-45.102 97.532-12.118 11.756-25.542 21.469-38.231 29.224-73.091 44.666-79.334 107.605-77.304 140.09v91.363c0 20.303 12.334 35.846 32.637 35.846s32.484-15.543 32.484-35.846v-93.394c0-2.03-2.03-44.666 52.788-77.15C672.394 462.998 713 398.029 713 326.969 713 215.303 623.667 128 512 128zM512 800c-26.4 0-48 21.601-48 48 0 26.4 21.6 48 48 48s48-21.6 48-48c0-26.399-21.6-48-48-48z"/></svg>